<svg class="keycap keycap-shft" xmlns="http://www.w3.org/2000/svg" viewBox="0 0 220 100">
  <g class="keycap-main" id="outline">
    <rect width="220" height="100" rx="14.83"/>
  </g>
  <g class="keycap-accent" id="background">
    <rect class="cls-1" x="10" y="10" width="200" height="80" rx="12.65"/>
  </g>
  <g class="keycap-main" id="mainBody">
    <rect x="15" y="15" width="190" height="70" rx="12.81"/>
  </g>
  <g class="keycap-accent" id="label">
    <g>
      <path class="cls-1" d="M443.73,511.54a5.14,5.14,0,0,0-2-4.35,26.34,26.34,0,0,0-7.21-3.2,51.52,51.52,0,0,1-8.24-3.32Q418,496.2,418,488.62a11.73,11.73,0,0,1,2.22-7,14.4,14.4,0,0,1,6.37-4.82,23.94,23.94,0,0,1,9.33-1.74,21.83,21.83,0,0,1,9.28,1.89,14.73,14.73,0,0,1,6.32,5.32,13.93,13.93,0,0,1,2.25,7.81h-10a6.54,6.54,0,0,0-2.1-5.19,8.62,8.62,0,0,0-5.91-1.85,9.18,9.18,0,0,0-5.7,1.55,4.88,4.88,0,0,0-2,4.09,4.71,4.71,0,0,0,2.39,4,27.42,27.42,0,0,0,7,3q8.54,2.56,12.45,6.37a12.72,12.72,0,0,1,3.9,9.48,11.69,11.69,0,0,1-4.77,9.89Q444.23,525,436.15,525a25,25,0,0,1-10.21-2.05,16.16,16.16,0,0,1-7-5.63A14.42,14.42,0,0,1,416.5,509h10q0,8,9.61,8a9.37,9.37,0,0,0,5.58-1.45A4.74,4.74,0,0,0,443.73,511.54Z" transform="translate(-390 -450)"/>
      <path class="cls-1" d="M500.08,524.29h-10V503.47H470.55v20.82h-10V475.71h10V495.4h19.52V475.71h10Z" transform="translate(-390 -450)"/>
      <path class="cls-1" d="M538.05,504.44H518.84v19.85h-10V475.71h31.64v8.11H518.84v12.54h19.21Z" transform="translate(-390 -450)"/>
      <path class="cls-1" d="M583.5,483.82H568.62v40.47h-10V483.82H543.93v-8.11H583.5Z" transform="translate(-390 -450)"/>
    </g>
  </g>
</svg>
