<svg class="keycap keycap-c" xmlns="http://www.w3.org/2000/svg" viewBox="0 0 100 100">
  <g class="keycap-main" id="outline">
    <rect width="100" height="100" rx="10"/>
  </g>
  <g class="keycap-accent" id="background">
    <rect class="cls-1" x="10" y="10" width="80" height="80" rx="8"/>
  </g>
  <g class="keycap-main" id="mainBody">
    <rect x="15" y="15" width="70" height="70" rx="7.78"/>
  </g>
  <g class="keycap-accent" id="label">
    <path class="cls-1" d="M519.94,508.17q-.59,7.92-5.84,12.45t-13.88,4.54q-9.42,0-14.82-6.33T480,501.41v-3A29.29,29.29,0,0,1,482.49,486a18.77,18.77,0,0,1,7.11-8.27,20,20,0,0,1,10.75-2.87q8.49,0,13.66,4.54c3.47,3,5.45,7.28,6,12.75H509.92c-.26-3.16-1.14-5.46-2.65-6.88s-3.82-2.13-6.92-2.13q-5,0-7.55,3.61T490.23,498v3.7q0,7.94,2.4,11.61c1.61,2.44,4.13,3.66,7.59,3.66q4.68,0,7-2.14c1.53-1.42,2.42-3.63,2.64-6.61Z" transform="translate(-450 -450)"/>
  </g>
</svg>
