<svg class="keycap keycap-ctrl" xmlns="http://www.w3.org/2000/svg" viewBox="0 0 220 100">
  <g class="keycap-main" id="outline">
    <rect width="220" height="100" rx="14.83"/>
  </g>
  <g class="keycap-accent" id="background">
    <rect class="cls-1" x="10" y="10" width="200" height="80" rx="12.65"/>
  </g>
  <g class="keycap-main" id="mainBody">
    <rect x="15" y="15" width="190" height="70" rx="12.81"/>
  </g>
  <g class="keycap-accent" id="label">
    <g>
      <path class="cls-1" d="M458.36,508.12q-.57,7.86-5.8,12.37T438.77,525q-9.36,0-14.72-6.31t-5.36-17.28v-3a29.18,29.18,0,0,1,2.47-12.37,18.55,18.55,0,0,1,7.07-8.2A19.75,19.75,0,0,1,438.91,475q8.41,0,13.57,4.51t5.94,12.67h-10q-.37-4.71-2.62-6.84t-6.87-2.12c-3.34,0-5.85,1.2-7.51,3.59s-2.51,6.11-2.55,11.15v3.68q0,7.89,2.39,11.53t7.53,3.64q4.65,0,6.94-2.13c1.52-1.41,2.4-3.59,2.62-6.56Z" transform="translate(-390 -450)"/>
      <path class="cls-1" d="M500.6,483.79H485.7v40.54h-10V483.79H461v-8.12H500.6Z" transform="translate(-390 -450)"/>
      <path class="cls-1" d="M524.33,506.52h-8v17.81h-10V475.67H524.4q8.63,0,13.3,3.84t4.68,10.86a15,15,0,0,1-2.16,8.31,14.72,14.72,0,0,1-6.53,5.3l10.53,19.88v.47H533.45Zm-8-8.13h8.09a8.28,8.28,0,0,0,5.85-1.92,6.85,6.85,0,0,0,2.07-5.29,7.38,7.38,0,0,0-2-5.42q-2-2-6-2h-8.06Z" transform="translate(-390 -450)"/>
      <path class="cls-1" d="M560,516.28h21.29v8.05H550V475.67h10Z" transform="translate(-390 -450)"/>
    </g>
  </g>
</svg>
